<svg width="187" height="186" viewBox="0 0 187 186" fill="none" xmlns="http://www.w3.org/2000/svg">
<path d="M154.418 29.1361C174.329 47.6651 186.45 72.7238 186.111 99.9204C185.754 128.65 176.267 158.382 152.607 174.685C129.31 190.738 99.1555 186.557 72.0259 178.531C45.3284 170.633 19.5124 157.113 7.81269 131.85C-4.38851 105.503 -1.80344 74.65 12.1187 49.171C26.075 23.6294 50.6587 4.74798 79.4803 0.690079C107.316 -3.22902 133.84 9.9861 154.418 29.1361Z" fill="#6842FF"/>
<path d="M128.67 82.625H113.739C113.466 80.6932 112.909 78.9773 112.068 77.4773C111.227 75.9545 110.148 74.6591 108.83 73.5909C107.511 72.5227 105.989 71.7045 104.261 71.1364C102.557 70.5682 100.705 70.2841 98.7045 70.2841C95.0909 70.2841 91.9432 71.1818 89.2614 72.9773C86.5795 74.75 84.5 77.3409 83.0227 80.75C81.5455 84.1364 80.8068 88.25 80.8068 93.0909C80.8068 98.0682 81.5455 102.25 83.0227 105.636C84.5227 109.023 86.6136 111.58 89.2955 113.307C91.9773 115.034 95.0795 115.898 98.6023 115.898C100.58 115.898 102.409 115.636 104.091 115.114C105.795 114.591 107.307 113.83 108.625 112.83C109.943 111.807 111.034 110.568 111.898 109.114C112.784 107.659 113.398 106 113.739 104.136L128.67 104.205C128.284 107.409 127.318 110.5 125.773 113.477C124.25 116.432 122.193 119.08 119.602 121.42C117.034 123.739 113.966 125.58 110.398 126.943C106.852 128.284 102.841 128.955 98.3636 128.955C92.1364 128.955 86.5682 127.545 81.6591 124.727C76.7727 121.909 72.9091 117.83 70.0682 112.489C67.25 107.148 65.8409 100.682 65.8409 93.0909C65.8409 85.4773 67.2727 79 70.1364 73.6591C73 68.3182 76.8864 64.25 81.7955 61.4545C86.7045 58.6364 92.2273 57.2273 98.3636 57.2273C102.409 57.2273 106.159 57.7955 109.614 58.9318C113.091 60.0682 116.17 61.7273 118.852 63.9091C121.534 66.0682 123.716 68.7159 125.398 71.8523C127.102 74.9886 128.193 78.5795 128.67 82.625Z" fill="black"/>
</svg>
